<svg width="48" height="40" viewBox="0 0 48 40" fill="none" xmlns="http://www.w3.org/2000/svg">
<path d="M46 34C46 35.0609 45.5786 36.0783 44.8284 36.8284C44.0783 37.5786 43.0609 38 42 38H6C4.93913 38 3.92172 37.5786 3.17157 36.8284C2.42143 36.0783 2 35.0609 2 34V12C2 10.9391 2.42143 9.92172 3.17157 9.17157C3.92172 8.42143 4.93913 8 6 8H14L18 2H30L34 8H42C43.0609 8 44.0783 8.42143 44.8284 9.17157C45.5786 9.92172 46 10.9391 46 12V34Z" stroke="#1E1E1E" stroke-width="4" stroke-linecap="round" stroke-linejoin="round"/>
<path d="M24 30C28.4183 30 32 26.4183 32 22C32 17.5817 28.4183 14 24 14C19.5817 14 16 17.5817 16 22C16 26.4183 19.5817 30 24 30Z" stroke="#1E1E1E" stroke-width="4" stroke-linecap="round" stroke-linejoin="round"/>
</svg>
