<svg width="68" height="68" viewBox="0 0 68 68" fill="none" xmlns="http://www.w3.org/2000/svg">
<path d="M22 29.5H46" stroke="#156D2C" stroke-width="8" stroke-linecap="round"/>
<path d="M22 40H38.5" stroke="#156D2C" stroke-width="8" stroke-linecap="round"/>
<path d="M49 8.01346C44.5873 5.46091 39.4642 4 34 4C17.4314 4 4 17.4314 4 34C4 38.7991 5.12686 43.3348 7.13038 47.3575C7.66282 48.4264 7.84003 49.6483 7.53136 50.8018L5.74453 57.4801C4.96885 60.379 7.62103 63.031 10.52 62.2555L17.1982 60.4687C18.3518 60.16 19.5736 60.3373 20.6426 60.8695C24.6651 62.8732 29.2009 64 34 64C50.5684 64 64 50.5684 64 34C64 28.5358 62.539 23.4126 59.9866 19" stroke="#156D2C" stroke-width="8" stroke-linecap="round"/>
</svg>
