<svg width="72" height="72" viewBox="0 0 72 72" fill="none" xmlns="http://www.w3.org/2000/svg">
<path d="M36 24V36L43.5 43.5" stroke="#156D2C" stroke-width="8" stroke-linecap="round" stroke-linejoin="round"/>
<path d="M13.0136 20.6118L10.7636 20.6231C10.7698 21.8569 11.7684 22.8556 13.0022 22.8618L13.0136 20.6118ZM20.6389 22.9002C21.8815 22.9064 22.8939 21.9041 22.9002 20.6615C22.9064 19.4189 21.9041 18.4065 20.6615 18.4002L20.6389 22.9002ZM15.2251 12.9639C15.2189 11.7212 14.2065 10.7189 12.9639 10.7252C11.7212 10.7314 10.7189 11.7439 10.7252 12.9865L15.2251 12.9639ZM11.25 36C11.25 34.7574 10.2426 33.75 9 33.75C7.75737 33.75 6.75 34.7574 6.75 36H11.25ZM50.6265 61.3356C51.7023 60.7134 52.0698 59.337 51.4476 58.2612C50.8254 57.1857 49.449 56.8179 48.3735 57.4404L50.6265 61.3356ZM57.4404 48.3735C56.8179 49.449 57.1857 50.8254 58.2612 51.4476C59.337 52.0698 60.7134 51.7023 61.3356 50.6265L57.4404 48.3735ZM15.421 15.2138C14.5379 16.0881 14.5308 17.5127 15.4051 18.3957C16.2794 19.2788 17.704 19.2859 18.5871 18.4116L15.421 15.2138ZM56.5869 15.4136C45.1263 3.95298 26.6065 3.83694 15.2217 15.2217L18.4037 18.4037C28.001 8.80635 43.6716 8.86212 53.4051 18.5956L56.5869 15.4136ZM15.2217 15.2217L11.4226 19.0208L14.6045 22.2028L18.4037 18.4037L15.2217 15.2217ZM13.0022 22.8618L20.6389 22.9002L20.6615 18.4002L13.0249 18.3619L13.0022 22.8618ZM15.2635 20.6005L15.2251 12.9639L10.7252 12.9865L10.7636 20.6231L15.2635 20.6005ZM36 11.25C49.6689 11.25 60.75 22.3309 60.75 36H65.25C65.25 19.8457 52.1544 6.75 36 6.75V11.25ZM36 60.75C22.3309 60.75 11.25 49.6689 11.25 36H6.75C6.75 52.1544 19.8457 65.25 36 65.25V60.75ZM48.3735 57.4404C44.7354 59.5449 40.5117 60.75 36 60.75V65.25C41.3241 65.25 46.3221 63.8256 50.6265 61.3356L48.3735 57.4404ZM60.75 36C60.75 40.5117 59.5449 44.7354 57.4404 48.3735L61.3356 50.6265C63.8256 46.3221 65.25 41.3241 65.25 36H60.75ZM18.5871 18.4116C23.0612 13.9818 29.2094 11.25 36 11.25V6.75C27.9763 6.75 20.7034 9.98373 15.421 15.2138L18.5871 18.4116Z" fill="#156D2C"/>
</svg>
