<svg width="60" height="60" viewBox="0 0 60 60" fill="none" xmlns="http://www.w3.org/2000/svg">
<path fill-rule="evenodd" clip-rule="evenodd" d="M30 5.25C16.3309 5.25 5.25 16.3309 5.25 30C5.25 43.6689 16.3309 54.75 30 54.75C43.6689 54.75 54.75 43.6689 54.75 30C54.75 16.3309 43.6689 5.25 30 5.25ZM0.75 30C0.75 13.8457 13.8457 0.75 30 0.75C46.1544 0.75 59.25 13.8457 59.25 30C59.25 46.1544 46.1544 59.25 30 59.25C13.8457 59.25 0.75 46.1544 0.75 30ZM30 27.75C31.2426 27.75 32.25 28.7574 32.25 30V40.5C32.25 41.7426 31.2426 42.75 30 42.75C28.7574 42.75 27.75 41.7426 27.75 40.5V30C27.75 28.7574 28.7574 27.75 30 27.75ZM30 18C28.3431 18 27 19.3432 27 21C27 22.6568 28.3431 24 30 24H30.03C31.6869 24 33.03 22.6568 33.03 21C33.03 19.3432 31.6869 18 30.03 18H30Z" fill="#156D2C"/>
</svg>
