<svg width="72" height="72" viewBox="0 0 72 72" fill="none" xmlns="http://www.w3.org/2000/svg">
<path d="M36 51V30M36 30L45 39M36 30L27 39" stroke="#156D2C" stroke-width="5" stroke-linecap="round" stroke-linejoin="round"/>
<path d="M48 21H36H24" stroke="#156D2C" stroke-width="5" stroke-linecap="round"/>
<path d="M66 36C66 50.142 66 57.2133 61.6065 61.6065C57.2133 66 50.142 66 36 66C21.8578 66 14.7868 66 10.3934 61.6065C6 57.2133 6 50.142 6 36C6 21.8578 6 14.7868 10.3934 10.3934C14.7868 6 21.8578 6 36 6C50.142 6 57.2133 6 61.6065 10.3934C64.5279 13.3146 65.5068 17.4196 65.8347 24" stroke="#156D2C" stroke-width="5" stroke-linecap="round"/>
</svg>
